<?xml version="1.0" encoding="utf-8"?>
<!-- Generator: Adobe Illustrator 21.1.0, SVG Export Plug-In . SVG Version: 6.00 Build 0)  -->
<svg version="1.1" id="Calque_1" xmlns="http://www.w3.org/2000/svg" xmlns:xlink="http://www.w3.org/1999/xlink" x="0px" y="0px"
	 viewBox="0 0 1200 800" style="enable-background:new 0 0 1200 800;" xml:space="preserve">
<style type="text/css">
	.st0{fill:none;stroke:#A0A09F;stroke-width:5;stroke-miterlimit:10;}
	.st1{fill:none;stroke:#A0A09F;stroke-width:3;stroke-miterlimit:10;}
	.st2{fill:#A0A09F;}
</style>
<rect class="st0" width="1200" height="800"/>
<rect x="169.4" y="226.8" class="st1" width="230.6" height="137.5"/>
<rect x="169.4" y="421.8" class="st2" width="230.6" height="10.5"/>
<rect x="169.4" y="447.7" class="st2" width="230.6" height="10.5"/>
<rect x="169.4" y="470.7" class="st2" width="230.6" height="10.5"/>
<rect x="169.4" y="493.7" class="st2" width="230.6" height="10.5"/>
<rect x="169.4" y="516.7" class="st2" width="230.6" height="10.5"/>
<rect x="169.4" y="539.7" class="st2" width="230.6" height="10.5"/>
<rect x="169.4" y="562.7" class="st2" width="230.6" height="10.5"/>
<rect x="480.6" y="226.8" class="st1" width="230.6" height="137.5"/>
<rect x="480.6" y="421.8" class="st2" width="230.6" height="10.5"/>
<rect x="480.6" y="447.7" class="st2" width="230.6" height="10.5"/>
<rect x="480.6" y="470.7" class="st2" width="230.6" height="10.5"/>
<rect x="480.6" y="493.7" class="st2" width="230.6" height="10.5"/>
<rect x="480.6" y="516.7" class="st2" width="230.6" height="10.5"/>
<rect x="480.6" y="539.7" class="st2" width="230.6" height="10.5"/>
<rect x="480.6" y="562.7" class="st2" width="230.6" height="10.5"/>
<rect x="800" y="226.8" class="st1" width="230.6" height="137.5"/>
<rect x="800" y="421.8" class="st2" width="230.6" height="10.5"/>
<rect x="800" y="447.7" class="st2" width="230.6" height="10.5"/>
<rect x="800" y="470.7" class="st2" width="230.6" height="10.5"/>
<rect x="800" y="493.7" class="st2" width="230.6" height="10.5"/>
<rect x="800" y="516.7" class="st2" width="230.6" height="10.5"/>
<rect x="800" y="539.7" class="st2" width="230.6" height="10.5"/>
<rect x="800" y="562.7" class="st2" width="230.6" height="10.5"/>
</svg>
